<?xml version="1.0" encoding="UTF-8"?>
<svg xmlns="http://www.w3.org/2000/svg" xmlns:xlink="http://www.w3.org/1999/xlink" width="24px" height="23px" viewBox="0 0 24 23" version="1.1">
<g id="surface1">
<path style=" stroke:none;fill-rule:nonzero;fill:#ffffff;fill-opacity:1;" d="M 11.601562 2.183594 C 11.601562 2.375 11.464844 2.921875 11.292969 3.382812 C 10.949219 4.332031 9.542969 7.878906 9.433594 8.078125 C 9.378906 8.179688 9.308594 8.105469 9.144531 7.816406 C 8.71875 7.042969 7.714844 6.777344 6.796875 7.195312 C 6.0625 7.535156 5.710938 7.996094 5.710938 8.644531 C 5.710938 9.1875 6.007812 9.679688 6.898438 10.609375 C 7.6875 11.425781 7.703125 11.453125 7.703125 11.890625 C 7.703125 12.628906 7.386719 12.910156 6.28125 13.148438 C 5.945312 13.210938 5.484375 13.335938 5.257812 13.417969 C 4.667969 13.628906 4.167969 13.730469 4.167969 13.636719 C 4.167969 13.546875 4.613281 13.308594 5.554688 12.917969 C 6.488281 12.539062 6.796875 12.273438 6.796875 11.871094 C 6.796875 11.507812 6.652344 11.101562 6.527344 11.101562 C 6.480469 11.101562 6.007812 11.425781 5.472656 11.828125 C 4.53125 12.554688 3.988281 12.855469 2.402344 13.539062 C 1.449219 13.9375 0.679688 14.421875 0.5625 14.683594 C 0.453125 14.929688 0.5625 15.222656 0.832031 15.414062 C 1.167969 15.648438 2.15625 15.601562 3.253906 15.285156 C 3.769531 15.128906 4.332031 15.011719 4.496094 15.011719 C 4.785156 15.011719 4.804688 14.992188 4.8125 14.710938 C 4.8125 14.558594 4.847656 14.339844 4.886719 14.238281 C 4.949219 14.082031 4.976562 14.121094 5.074219 14.464844 C 5.246094 15.09375 5.773438 15.539062 7.1875 16.230469 C 8.925781 17.085938 9.578125 17.714844 9.878906 18.832031 L 9.988281 19.242188 L 10.160156 18.925781 C 10.394531 18.46875 10.378906 17.660156 10.113281 16.921875 C 9.996094 16.59375 9.871094 16.25 9.832031 16.148438 C 9.796875 16.039062 9.898438 16.105469 10.097656 16.3125 C 10.929688 17.230469 10.976562 18.84375 10.207031 20.507812 L 9.886719 21.207031 L 10.160156 21.007812 C 10.578125 20.714844 11.472656 19.535156 11.828125 18.824219 C 12.453125 17.585938 12.789062 15.886719 12.617188 14.847656 C 12.570312 14.59375 12.570312 14.375 12.605469 14.375 C 12.644531 14.375 13.078125 14.613281 13.566406 14.910156 C 15.597656 16.132812 17.410156 17.195312 17.445312 17.195312 C 17.472656 17.195312 17.492188 17.058594 17.492188 16.894531 C 17.492188 16.402344 17.753906 15.546875 18.082031 14.949219 C 18.253906 14.640625 18.789062 13.855469 19.269531 13.230469 C 20.21875 11.964844 20.710938 11.0625 20.800781 10.382812 C 20.855469 10 20.898438 9.917969 21.125 9.824219 C 21.273438 9.761719 21.417969 9.679688 21.433594 9.644531 C 21.460938 9.597656 21.351562 9.363281 21.199219 9.117188 C 21.019531 8.824219 20.9375 8.578125 20.953125 8.40625 C 20.992188 8.117188 21.179688 8.007812 21.226562 8.261719 C 21.253906 8.414062 21.363281 8.386719 22.339844 7.914062 C 23.59375 7.324219 23.59375 7.332031 21.953125 7.222656 C 20.972656 7.167969 20.917969 7.167969 20.9375 7.332031 C 20.945312 7.433594 20.953125 7.542969 20.945312 7.597656 C 20.9375 7.640625 20.621094 7.195312 20.230469 6.597656 C 19.449219 5.394531 19.132812 5.078125 18.273438 4.660156 C 17.492188 4.277344 16.722656 4.09375 15.535156 4.003906 C 14.421875 3.921875 13.992188 3.820312 13.25 3.492188 C 12.507812 3.167969 12.191406 2.882812 11.917969 2.320312 C 11.792969 2.046875 11.664062 1.820312 11.648438 1.820312 C 11.621094 1.820312 11.601562 1.984375 11.601562 2.183594 Z M 13.097656 3.914062 C 13.632812 4.285156 14.257812 4.511719 15.535156 4.820312 C 16.140625 4.96875 16.8125 5.148438 17.03125 5.222656 C 17.582031 5.421875 18.597656 6.121094 19.007812 6.585938 C 19.441406 7.085938 19.820312 7.824219 19.675781 7.90625 C 19.621094 7.941406 18.226562 8.269531 16.566406 8.632812 C 14.910156 8.996094 13.433594 9.335938 13.277344 9.378906 L 13.007812 9.460938 L 13.277344 9.425781 C 13.433594 9.40625 14.972656 9.152344 16.703125 8.863281 C 19.3125 8.425781 19.875 8.351562 19.941406 8.453125 C 20.019531 8.597656 19.964844 8.808594 19.777344 9.023438 C 19.578125 9.261719 18.679688 9.527344 16.941406 9.871094 C 16.070312 10.035156 14.875 10.289062 14.273438 10.425781 C 13.007812 10.71875 11.492188 10.773438 10.269531 10.5625 C 9.542969 10.445312 9.328125 10.28125 9.886719 10.28125 C 10.234375 10.28125 10.304688 10.082031 10.070312 9.769531 C 9.941406 9.609375 9.898438 9.460938 9.933594 9.308594 C 9.980469 9.132812 9.925781 9.015625 9.699219 8.78125 L 9.40625 8.480469 L 10.511719 5.722656 C 11.121094 4.203125 11.648438 2.902344 11.664062 2.839844 C 11.691406 2.773438 11.890625 2.894531 12.207031 3.183594 C 12.480469 3.4375 12.878906 3.765625 13.097656 3.914062 Z M 19.792969 10.789062 C 19.621094 11.335938 19.386719 11.753906 18.460938 13.082031 C 17.726562 14.148438 17.410156 14.976562 17.339844 16.066406 C 17.3125 16.484375 17.257812 16.832031 17.230469 16.832031 C 17.203125 16.832031 17.058594 16.757812 16.902344 16.660156 C 16.757812 16.566406 15.699219 15.914062 14.546875 15.203125 L 12.472656 13.910156 L 12.21875 13.21875 C 12.082031 12.828125 11.992188 12.492188 12.027344 12.464844 C 12.074219 12.429688 12.398438 12.355469 12.761719 12.300781 C 13.621094 12.15625 14.621094 11.765625 15.054688 11.390625 C 15.40625 11.089844 15.40625 11.089844 16.105469 11.144531 C 16.757812 11.199219 16.875 11.179688 17.601562 10.917969 C 18.035156 10.761719 18.734375 10.453125 19.140625 10.246094 L 19.894531 9.863281 L 19.921875 10.082031 C 19.941406 10.199219 19.886719 10.515625 19.792969 10.789062 Z M 19.792969 10.789062 "/>
</g>
</svg>
