<?xml version="1.0" encoding="UTF-8"?>
<svg xmlns="http://www.w3.org/2000/svg" xmlns:xlink="http://www.w3.org/1999/xlink" width="24px" height="24px" viewBox="0 0 24 24" version="1.1">
<g id="surface1">
<path style=" stroke:none;fill-rule:nonzero;fill:#ee0f38;fill-opacity:1;" d="M 20.851562 2.035156 C 19.878906 2.421875 19.074219 2.757812 19.058594 2.769531 C 19.046875 2.78125 19.378906 2.90625 19.796875 3.042969 C 20.210938 3.179688 20.59375 3.324219 20.632812 3.359375 C 20.675781 3.402344 20.8125 3.722656 20.929688 4.074219 C 21.046875 4.425781 21.171875 4.773438 21.207031 4.851562 L 21.273438 4.992188 L 21.324219 4.855469 C 21.351562 4.785156 21.679688 3.964844 22.054688 3.039062 C 22.429688 2.109375 22.734375 1.34375 22.734375 1.332031 C 22.734375 1.28125 22.503906 1.367188 20.851562 2.035156 Z M 20.851562 2.035156 "/>
<path style=" stroke:none;fill-rule:nonzero;fill:#ee0f38;fill-opacity:1;" d="M 18.65625 3.203125 C 18.65625 3.210938 18.730469 3.542969 18.820312 3.941406 L 18.980469 4.664062 L 16.484375 7.164062 C 15.113281 8.535156 12.4375 11.203125 10.53125 13.085938 L 7.074219 16.515625 L 6.109375 16.457031 L 5.136719 16.402344 L 4.171875 17.367188 L 4.578125 17.398438 C 4.808594 17.414062 5.242188 17.441406 5.550781 17.460938 L 6.101562 17.492188 L 5.886719 17.714844 L 5.671875 17.929688 L 5.125 17.898438 C 4.820312 17.882812 4.375 17.855469 4.132812 17.839844 L 3.695312 17.8125 L 3.160156 18.335938 C 2.71875 18.769531 2.632812 18.867188 2.703125 18.894531 C 2.75 18.914062 3.136719 18.941406 3.558594 18.960938 C 3.980469 18.980469 4.375 19.007812 4.4375 19.027344 C 4.546875 19.054688 4.546875 19.058594 4.34375 19.257812 L 4.140625 19.457031 L 3.144531 19.402344 L 2.152344 19.34375 L 1.707031 19.785156 C 1.460938 20.023438 1.265625 20.234375 1.265625 20.253906 C 1.265625 20.269531 1.554688 20.296875 1.914062 20.316406 C 2.265625 20.328125 2.699219 20.359375 2.875 20.375 L 3.191406 20.40625 L 3.003906 20.597656 C 2.898438 20.703125 2.8125 20.835938 2.8125 20.890625 C 2.8125 20.984375 2.96875 21.140625 3.0625 21.140625 C 3.078125 21.140625 3.203125 21.046875 3.324219 20.929688 L 3.554688 20.714844 L 3.582031 20.914062 C 3.59375 21.027344 3.617188 21.421875 3.636719 21.796875 C 3.683594 22.800781 3.648438 22.773438 4.175781 22.234375 L 4.632812 21.773438 L 4.566406 20.765625 L 4.5 19.761719 L 4.695312 19.5625 C 4.804688 19.449219 4.90625 19.359375 4.925781 19.359375 C 4.941406 19.359375 4.972656 19.667969 4.992188 20.054688 C 5.011719 20.433594 5.039062 20.875 5.058594 21.039062 L 5.085938 21.328125 L 6.15625 20.257812 L 6.09375 19.242188 L 6.039062 18.226562 L 6.238281 18.019531 C 6.441406 17.8125 6.445312 17.8125 6.472656 17.921875 C 6.492188 17.980469 6.519531 18.359375 6.539062 18.757812 C 6.558594 19.15625 6.585938 19.554688 6.601562 19.636719 L 6.632812 19.78125 L 7.105469 19.304688 L 7.578125 18.820312 L 7.515625 17.8125 L 7.453125 16.808594 L 7.8125 16.453125 C 8.015625 16.257812 10.679688 13.601562 13.734375 10.5625 L 19.289062 5.023438 L 20.078125 5.199219 C 20.554688 5.304688 20.859375 5.351562 20.855469 5.324219 C 20.855469 5.296875 20.734375 4.925781 20.585938 4.5 L 20.316406 3.726562 L 19.570312 3.460938 C 18.898438 3.226562 18.65625 3.15625 18.65625 3.203125 Z M 18.65625 3.203125 "/>
<path style=" stroke:none;fill-rule:nonzero;fill:#ee0f38;fill-opacity:1;" d="M 18.121094 7.269531 C 17.914062 7.449219 17.875 7.574219 17.980469 7.691406 C 18.097656 7.824219 18.242188 7.800781 18.414062 7.625 C 18.585938 7.445312 18.605469 7.296875 18.460938 7.199219 C 18.320312 7.101562 18.308594 7.101562 18.121094 7.269531 Z M 18.121094 7.269531 "/>
<path style=" stroke:none;fill-rule:nonzero;fill:#ee0f38;fill-opacity:1;" d="M 14.851562 10.53125 C 13.007812 12.375 12.28125 13.128906 12.28125 13.203125 C 12.28125 13.304688 12.4375 13.453125 12.539062 13.453125 C 12.5625 13.453125 13.738281 12.300781 15.148438 10.890625 C 16.992188 9.046875 17.71875 8.292969 17.71875 8.21875 C 17.71875 8.117188 17.5625 7.96875 17.460938 7.96875 C 17.4375 7.96875 16.261719 9.121094 14.851562 10.53125 Z M 14.851562 10.53125 "/>
</g>
</svg>
