<?xml version="1.0" encoding="UTF-8"?>
<svg xmlns="http://www.w3.org/2000/svg" xmlns:xlink="http://www.w3.org/1999/xlink" width="24px" height="24px" viewBox="0 0 24 24" version="1.1">
<g id="surface1">
<path style=" stroke:none;fill-rule:nonzero;fill:#ee0f38;fill-opacity:1;" d="M 16.828125 1.335938 L 15.488281 2.671875 L 15.089844 2.488281 C 13.984375 1.976562 12.871094 1.707031 11.703125 1.65625 C 11.078125 1.625 11.058594 1.632812 10.945312 1.734375 C 10.828125 1.84375 10.800781 1.984375 10.855469 2.132812 C 10.914062 2.269531 11.136719 2.34375 11.515625 2.34375 C 12.492188 2.347656 13.742188 2.648438 14.769531 3.125 L 15.226562 3.335938 L 15.253906 3.628906 C 15.265625 3.78125 15.296875 4.203125 15.308594 4.5625 L 15.34375 5.207031 L 15.003906 4.992188 C 13.238281 3.847656 11 3.554688 9.007812 4.199219 C 8.453125 4.382812 7.472656 4.890625 7.011719 5.234375 C 5.875 6.089844 5.015625 7.265625 4.550781 8.59375 C 4.085938 9.921875 4.050781 11.480469 4.457031 12.851562 C 4.601562 13.351562 4.960938 14.140625 5.21875 14.554688 C 6.238281 16.1875 7.875 17.328125 9.796875 17.746094 C 10.367188 17.875 11.984375 17.875 12.5625 17.746094 C 13.984375 17.4375 15.089844 16.835938 16.101562 15.820312 C 17.140625 14.785156 17.738281 13.695312 18.054688 12.25 C 18.207031 11.578125 18.207031 10.171875 18.054688 9.484375 C 17.875 8.628906 17.476562 7.664062 17.042969 7.027344 C 16.949219 6.890625 16.875 6.765625 16.875 6.75 C 16.875 6.734375 17.273438 6.746094 17.765625 6.773438 C 18.445312 6.8125 18.671875 6.835938 18.722656 6.890625 C 18.820312 6.992188 19.140625 7.734375 19.304688 8.253906 C 19.871094 10.015625 19.851562 11.804688 19.261719 13.625 C 19.054688 14.253906 19.0625 14.382812 19.308594 14.484375 C 19.523438 14.574219 19.671875 14.480469 19.808594 14.171875 C 19.984375 13.785156 20.234375 12.828125 20.328125 12.21875 C 20.429688 11.578125 20.4375 10.289062 20.347656 9.65625 C 20.21875 8.726562 19.882812 7.613281 19.519531 6.886719 L 19.363281 6.578125 L 20.699219 5.246094 C 21.429688 4.515625 22.046875 3.875 22.058594 3.828125 C 22.097656 3.707031 22 3.488281 21.871094 3.429688 C 21.816406 3.40625 21.25 3.355469 20.617188 3.324219 L 19.457031 3.261719 L 19.128906 2.933594 L 18.804688 2.601562 L 18.75 1.546875 C 18.722656 0.964844 18.6875 0.421875 18.675781 0.335938 C 18.648438 0.144531 18.492188 0 18.308594 0 C 18.191406 0 17.984375 0.183594 16.828125 1.335938 Z M 18.066406 1.929688 L 18.097656 2.644531 L 17.082031 3.660156 C 16.519531 4.222656 16.050781 4.679688 16.039062 4.664062 C 16.03125 4.65625 16.003906 4.335938 15.980469 3.957031 L 15.9375 3.261719 L 16.953125 2.242188 C 17.515625 1.679688 17.992188 1.21875 18.003906 1.21875 C 18.019531 1.21875 18.046875 1.539062 18.066406 1.929688 Z M 18.65625 3.445312 L 18.820312 3.613281 L 15.1875 7.242188 C 13.164062 9.265625 11.515625 10.875 11.46875 10.875 C 11.367188 10.875 11.203125 10.710938 11.203125 10.609375 C 11.203125 10.539062 18.398438 3.28125 18.46875 3.28125 C 18.488281 3.28125 18.566406 3.355469 18.65625 3.445312 Z M 20.382812 4.015625 L 20.914062 4.046875 L 18.824219 6.136719 L 18.5625 6.117188 C 18.421875 6.101562 18.097656 6.078125 17.839844 6.066406 L 17.375 6.039062 L 19.429688 3.984375 L 19.640625 3.984375 C 19.757812 3.984375 20.089844 4 20.382812 4.015625 Z M 11.804688 4.597656 C 12.398438 4.660156 12.929688 4.785156 13.460938 4.992188 C 13.875 5.152344 14.570312 5.523438 14.8125 5.71875 L 14.929688 5.808594 L 14.390625 6.351562 L 13.847656 6.894531 L 13.480469 6.683594 C 12.558594 6.160156 11.335938 5.972656 10.25 6.191406 C 9.335938 6.375 8.582031 6.769531 7.902344 7.410156 C 7.003906 8.257812 6.492188 9.34375 6.4375 10.527344 C 6.40625 11.035156 6.414062 11.046875 6.519531 11.128906 C 6.664062 11.226562 6.851562 11.222656 6.984375 11.117188 C 7.070312 11.046875 7.09375 10.964844 7.125 10.550781 C 7.191406 9.8125 7.378906 9.253906 7.765625 8.652344 C 8.734375 7.15625 10.589844 6.464844 12.296875 6.960938 C 12.6875 7.074219 13.234375 7.3125 13.285156 7.398438 C 13.296875 7.421875 13.058594 7.683594 12.757812 7.984375 L 12.207031 8.535156 L 12 8.457031 C 11.675781 8.339844 10.867188 8.316406 10.519531 8.414062 C 9.589844 8.679688 8.886719 9.425781 8.695312 10.34375 C 8.570312 10.941406 8.628906 11.398438 8.90625 11.976562 C 9.191406 12.570312 9.707031 13.039062 10.335938 13.273438 C 10.742188 13.425781 11.617188 13.425781 12.023438 13.273438 C 12.648438 13.046875 13.164062 12.570312 13.453125 11.976562 C 13.75 11.367188 13.800781 10.761719 13.613281 10.125 L 13.539062 9.875 L 14.667969 8.746094 L 14.855469 9.144531 C 15.125 9.71875 15.195312 10.011719 15.21875 10.734375 C 15.238281 11.269531 15.230469 11.433594 15.144531 11.789062 C 14.9375 12.660156 14.410156 13.5 13.71875 14.042969 C 12.046875 15.367188 9.730469 15.214844 8.25 13.6875 C 7.867188 13.292969 7.671875 13 7.429688 12.441406 C 7.203125 11.921875 7 11.789062 6.746094 11.996094 C 6.601562 12.113281 6.605469 12.3125 6.765625 12.699219 C 7.316406 14.054688 8.539062 15.109375 10.007812 15.5 C 10.414062 15.609375 10.570312 15.625 11.179688 15.625 C 11.789062 15.625 11.945312 15.609375 12.335938 15.5 C 14.03125 15.050781 15.277344 13.835938 15.777344 12.164062 C 15.882812 11.816406 15.90625 11.617188 15.921875 11.058594 C 15.960938 10.078125 15.804688 9.382812 15.375 8.585938 L 15.183594 8.230469 L 15.710938 7.703125 C 16.003906 7.410156 16.261719 7.175781 16.285156 7.1875 C 16.363281 7.214844 16.8125 8 16.988281 8.421875 C 18.109375 11.089844 17.273438 14.160156 14.957031 15.90625 C 13.847656 16.742188 12.601562 17.15625 11.179688 17.15625 C 9.695312 17.15625 8.476562 16.734375 7.285156 15.816406 C 6.125 14.921875 5.316406 13.601562 4.984375 12.085938 C 4.867188 11.535156 4.867188 10.214844 4.984375 9.65625 C 5.257812 8.351562 5.859375 7.265625 6.800781 6.351562 C 8.148438 5.042969 9.988281 4.402344 11.804688 4.597656 Z M 11.597656 9.085938 C 11.609375 9.109375 11.410156 9.332031 11.148438 9.589844 C 10.890625 9.84375 10.636719 10.140625 10.589844 10.242188 C 10.414062 10.613281 10.519531 11.042969 10.84375 11.328125 C 11.082031 11.539062 11.34375 11.601562 11.667969 11.53125 C 11.902344 11.480469 11.96875 11.429688 12.449219 10.960938 L 12.980469 10.445312 L 13.007812 10.660156 C 13.054688 10.945312 12.964844 11.398438 12.8125 11.703125 C 12.652344 12.023438 12.261719 12.390625 11.921875 12.554688 C 11.679688 12.664062 11.59375 12.679688 11.179688 12.679688 C 10.742188 12.679688 10.6875 12.671875 10.398438 12.523438 C 9.605469 12.136719 9.1875 11.269531 9.394531 10.453125 C 9.546875 9.847656 9.992188 9.34375 10.546875 9.140625 C 10.8125 9.046875 11.550781 9.007812 11.597656 9.085938 Z M 11.597656 9.085938 "/>
<path style=" stroke:none;fill-rule:nonzero;fill:#ee0f38;fill-opacity:1;" d="M 9.21875 1.828125 C 8.992188 1.878906 8.558594 2 8.253906 2.105469 C 4.902344 3.226562 2.503906 6.125 2.011719 9.65625 C 1.921875 10.285156 1.929688 11.578125 2.03125 12.210938 C 2.40625 14.632812 3.707031 16.824219 5.621094 18.242188 C 5.867188 18.425781 6.089844 18.59375 6.109375 18.613281 C 6.132812 18.632812 5.890625 19.550781 5.574219 20.652344 C 5.171875 22.0625 5 22.734375 5 22.898438 C 5 23.171875 5.089844 23.398438 5.273438 23.617188 C 5.703125 24.132812 6.613281 24.09375 7 23.546875 C 7.085938 23.421875 7.203125 23.109375 7.332031 22.660156 L 7.53125 21.960938 L 11.171875 21.945312 L 14.808594 21.9375 L 14.90625 22.265625 C 14.957031 22.445312 15.042969 22.75 15.097656 22.929688 C 15.230469 23.394531 15.378906 23.632812 15.636719 23.804688 C 16.222656 24.191406 17 23.957031 17.277344 23.300781 C 17.421875 22.953125 17.390625 22.765625 16.785156 20.65625 C 16.46875 19.550781 16.21875 18.640625 16.226562 18.632812 C 16.234375 18.628906 16.414062 18.492188 16.621094 18.335938 C 17.183594 17.925781 17.742188 17.410156 18.140625 16.949219 C 18.585938 16.433594 19.171875 15.578125 19.171875 15.441406 C 19.171875 15.265625 19 15.09375 18.824219 15.09375 C 18.640625 15.09375 18.589844 15.148438 18.195312 15.726562 C 17.28125 17.066406 15.917969 18.160156 14.40625 18.777344 C 13.433594 19.171875 12.558594 19.355469 11.460938 19.390625 C 9.378906 19.460938 7.390625 18.796875 5.792969 17.488281 C 5.304688 17.085938 4.570312 16.304688 4.210938 15.796875 C 3.078125 14.207031 2.5 12.113281 2.667969 10.234375 C 2.832031 8.324219 3.554688 6.609375 4.773438 5.222656 C 6.007812 3.8125 7.914062 2.742188 9.699219 2.460938 C 10.082031 2.398438 10.246094 2.085938 10.007812 1.851562 C 9.871094 1.710938 9.777344 1.710938 9.21875 1.828125 Z M 7.195312 19.203125 C 7.386719 19.304688 7.542969 19.402344 7.53125 19.429688 C 7.519531 19.453125 7.285156 20.277344 7.003906 21.257812 C 6.578125 22.757812 6.476562 23.058594 6.371094 23.164062 C 6.226562 23.316406 6.101562 23.328125 5.90625 23.226562 C 5.710938 23.125 5.667969 22.921875 5.765625 22.570312 C 6.464844 20.082031 6.773438 19.03125 6.804688 19.03125 C 6.824219 19.03125 7.003906 19.109375 7.195312 19.203125 Z M 16.117188 20.890625 C 16.40625 21.917969 16.640625 22.8125 16.640625 22.882812 C 16.640625 23.070312 16.59375 23.152344 16.449219 23.226562 C 16.257812 23.328125 16.144531 23.3125 15.988281 23.164062 C 15.871094 23.054688 15.796875 22.828125 15.351562 21.257812 C 15.074219 20.277344 14.839844 19.453125 14.828125 19.429688 C 14.8125 19.382812 15.429688 19.039062 15.539062 19.035156 C 15.566406 19.03125 15.824219 19.871094 16.117188 20.890625 Z M 8.8125 19.800781 C 9.695312 20.039062 10.074219 20.082031 11.179688 20.082031 C 12.300781 20.082031 12.675781 20.035156 13.632812 19.78125 C 13.90625 19.707031 14.148438 19.660156 14.160156 19.679688 C 14.199219 19.726562 14.578125 21.070312 14.578125 21.164062 C 14.578125 21.226562 14.21875 21.234375 11.179688 21.234375 C 8.113281 21.234375 7.78125 21.226562 7.78125 21.160156 C 7.78125 21.097656 8.101562 19.925781 8.183594 19.691406 C 8.195312 19.660156 8.242188 19.640625 8.289062 19.65625 C 8.328125 19.667969 8.570312 19.734375 8.8125 19.800781 Z M 8.8125 19.800781 "/>
</g>
</svg>
