<?xml version="1.0" encoding="UTF-8"?>
<svg xmlns="http://www.w3.org/2000/svg" xmlns:xlink="http://www.w3.org/1999/xlink" width="24px" height="24px" viewBox="0 0 24 24" version="1.1">
<g id="surface1">
<path style=" stroke:none;fill-rule:nonzero;fill:#ffffff;fill-opacity:1;" d="M 0.492188 0.0898438 C 0.265625 0.191406 0.167969 0.296875 0.0703125 0.53125 C -0.101562 0.945312 0.0234375 1.25 0.589844 1.765625 C 1.246094 2.367188 1.785156 2.746094 2.4375 3.070312 C 2.648438 3.171875 3.144531 3.640625 5.132812 5.625 C 6.472656 6.960938 7.617188 8.066406 7.671875 8.085938 C 7.785156 8.117188 7.960938 8.042969 8.046875 7.925781 C 8.207031 7.71875 8.179688 7.6875 6.15625 5.664062 C 5.078125 4.585938 4.203125 3.703125 4.21875 3.703125 C 4.234375 3.703125 4.421875 3.734375 4.640625 3.777344 C 4.945312 3.828125 5.554688 3.851562 7.171875 3.871094 C 8.34375 3.886719 9.378906 3.90625 9.46875 3.917969 C 9.609375 3.941406 9.835938 4.148438 10.976562 5.28125 C 12.273438 6.578125 12.320312 6.628906 12.296875 6.773438 C 12.242188 7.101562 12.34375 7.242188 13.339844 8.25 L 14.292969 9.214844 L 12 11.507812 L 10.390625 9.898438 C 9.273438 8.785156 8.757812 8.296875 8.6875 8.296875 C 8.570312 8.296875 8.351562 8.476562 8.339844 8.578125 C 8.335938 8.617188 8.335938 8.691406 8.339844 8.742188 C 8.34375 8.792969 8.996094 9.484375 9.921875 10.414062 L 11.507812 12 L 9.777344 13.730469 C 8.128906 15.378906 8.042969 15.460938 7.925781 15.414062 C 7.707031 15.332031 6.308594 15.085938 6.066406 15.085938 C 5.914062 15.085938 5.757812 15.121094 5.644531 15.179688 C 5.539062 15.234375 4.875 15.863281 4.164062 16.578125 C 2.761719 17.992188 2.722656 18.042969 2.820312 18.414062 C 2.867188 18.589844 3.003906 18.769531 3.160156 18.851562 C 3.207031 18.875 3.59375 18.964844 4.023438 19.050781 L 4.800781 19.199219 L 4.953125 19.988281 C 5.035156 20.417969 5.136719 20.828125 5.179688 20.886719 C 5.328125 21.121094 5.652344 21.25 5.933594 21.1875 C 6.078125 21.15625 6.328125 20.929688 7.414062 19.84375 C 8.136719 19.125 8.765625 18.460938 8.816406 18.355469 C 8.878906 18.242188 8.910156 18.089844 8.910156 17.929688 C 8.910156 17.6875 8.664062 16.273438 8.582031 16.0625 C 8.539062 15.960938 8.695312 15.796875 10.269531 14.222656 L 12 12.492188 L 16.386719 16.875 C 20.601562 21.089844 20.78125 21.273438 20.957031 21.617188 C 21.289062 22.273438 21.632812 22.757812 22.226562 23.410156 C 22.773438 24 23.089844 24.117188 23.53125 23.898438 C 23.867188 23.722656 24.050781 23.363281 23.980469 23 C 23.96875 22.917969 23.8125 22.636719 23.644531 22.378906 C 23.085938 21.539062 22.75 20.761719 22.53125 19.804688 C 22.449219 19.421875 22.433594 19.164062 22.40625 16.734375 C 22.378906 14.179688 22.375 14.078125 22.273438 13.777344 C 22.09375 13.222656 21.863281 12.941406 20.386719 11.460938 C 19.203125 10.269531 18.988281 10.035156 19.011719 9.953125 C 19.03125 9.890625 19.027344 9.765625 19.007812 9.671875 C 18.980469 9.519531 18.828125 9.34375 17.984375 8.492188 L 16.992188 7.5 L 20.011719 4.480469 L 20.515625 4.976562 C 21.050781 5.503906 21.15625 5.558594 21.484375 5.515625 C 21.820312 5.476562 21.875 5.367188 22.671875 3.257812 C 23.253906 1.714844 23.394531 1.304688 23.371094 1.175781 C 23.316406 0.835938 23.023438 0.589844 22.710938 0.628906 C 22.609375 0.640625 21.679688 0.96875 20.648438 1.359375 C 18.605469 2.132812 18.53125 2.175781 18.484375 2.523438 C 18.441406 2.84375 18.496094 2.949219 19.023438 3.484375 L 19.519531 3.988281 L 16.5 7.007812 L 15.507812 6.015625 C 14.65625 5.171875 14.480469 5.019531 14.328125 4.992188 C 14.234375 4.972656 14.109375 4.96875 14.046875 4.988281 C 13.964844 5.011719 13.730469 4.796875 12.539062 3.613281 C 11.058594 2.136719 10.777344 1.90625 10.222656 1.726562 C 9.921875 1.625 9.820312 1.621094 7.265625 1.59375 C 4.835938 1.566406 4.578125 1.550781 4.195312 1.46875 C 3.253906 1.25 2.421875 0.898438 1.679688 0.394531 C 1.0625 -0.0273438 0.859375 -0.078125 0.492188 0.0898438 Z M 1.246094 0.953125 C 2.140625 1.5625 3.019531 1.929688 4.121094 2.164062 C 4.53125 2.253906 4.789062 2.265625 7.195312 2.292969 C 10.046875 2.324219 9.957031 2.320312 10.429688 2.601562 C 10.53125 2.664062 11.234375 3.332031 11.992188 4.085938 L 13.359375 5.460938 L 13.054688 5.765625 L 12.75 6.066406 L 11.398438 4.726562 C 10.167969 3.496094 10.03125 3.375 9.773438 3.277344 C 9.496094 3.167969 9.449219 3.167969 7.125 3.136719 C 4.519531 3.101562 4.515625 3.101562 3.5625 2.78125 C 2.679688 2.480469 1.964844 2.054688 1.1875 1.363281 C 0.75 0.976562 0.640625 0.820312 0.753906 0.746094 C 0.851562 0.683594 0.851562 0.683594 1.246094 0.953125 Z M 22.53125 1.632812 C 22.476562 1.78125 22.1875 2.554688 21.890625 3.34375 C 21.59375 4.132812 21.34375 4.78125 21.328125 4.78125 C 21.285156 4.78125 19.199219 2.675781 19.21875 2.65625 C 19.238281 2.644531 22.578125 1.375 22.625 1.363281 C 22.632812 1.359375 22.589844 1.480469 22.53125 1.632812 Z M 14.5 5.992188 L 14.8125 6.304688 L 13.976562 6.625 C 13.519531 6.796875 13.121094 6.9375 13.09375 6.9375 C 12.917969 6.9375 13.027344 6.78125 13.550781 6.253906 C 13.871094 5.933594 14.140625 5.671875 14.15625 5.671875 C 14.171875 5.671875 14.324219 5.8125 14.5 5.992188 Z M 15.796875 7.289062 C 16.039062 7.53125 16.226562 7.738281 16.214844 7.75 C 16.203125 7.757812 15.820312 7.90625 15.359375 8.085938 L 14.523438 8.40625 L 14.082031 7.964844 C 13.84375 7.726562 13.65625 7.519531 13.667969 7.503906 C 13.6875 7.484375 15.261719 6.863281 15.328125 6.847656 C 15.34375 6.84375 15.554688 7.046875 15.796875 7.289062 Z M 17.25 8.742188 C 17.628906 9.121094 17.675781 9.1875 17.597656 9.214844 C 17.550781 9.234375 17.160156 9.382812 16.734375 9.546875 L 15.960938 9.84375 L 15.515625 9.398438 C 15.273438 9.15625 15.085938 8.949219 15.09375 8.9375 C 15.132812 8.910156 16.707031 8.304688 16.757812 8.300781 C 16.785156 8.296875 17.007812 8.5 17.25 8.742188 Z M 16.894531 11.671875 C 16.992188 11.703125 17.140625 11.71875 17.226562 11.703125 C 17.371094 11.679688 17.421875 11.726562 18.71875 13.023438 C 19.851562 14.160156 20.058594 14.390625 20.082031 14.53125 C 20.09375 14.621094 20.113281 15.65625 20.128906 16.828125 C 20.148438 18.4375 20.171875 19.058594 20.222656 19.359375 C 20.257812 19.574219 20.289062 19.757812 20.28125 19.765625 C 20.273438 19.773438 18.519531 18.027344 16.382812 15.890625 L 12.492188 12 L 13.640625 10.851562 L 14.785156 9.703125 L 15.75 10.660156 C 16.472656 11.375 16.757812 11.625 16.894531 11.671875 Z M 18.304688 9.796875 C 18.324219 9.824219 18.070312 10.117188 17.746094 10.445312 L 17.160156 11.039062 L 16.828125 10.710938 L 16.5 10.382812 L 17.3125 10.074219 C 18.148438 9.746094 18.257812 9.71875 18.304688 9.796875 Z M 21.398438 13.570312 C 21.679688 14.042969 21.675781 13.953125 21.707031 16.804688 C 21.734375 19.238281 21.746094 19.460938 21.839844 19.898438 C 22.054688 20.925781 22.449219 21.863281 22.996094 22.671875 C 23.234375 23.019531 23.296875 23.148438 23.257812 23.203125 C 23.175781 23.335938 23.042969 23.257812 22.710938 22.898438 C 22.003906 22.121094 21.511719 21.304688 21.21875 20.4375 C 20.875 19.410156 20.816406 18.820312 20.8125 16.257812 C 20.8125 14.570312 20.808594 14.476562 20.714844 14.21875 C 20.621094 13.96875 20.5 13.832031 19.273438 12.59375 L 17.933594 11.25 L 18.234375 10.945312 L 18.539062 10.640625 L 19.914062 12.007812 C 20.667969 12.765625 21.335938 13.46875 21.398438 13.570312 Z M 7.078125 15.941406 C 7.246094 15.96875 7.398438 16.007812 7.414062 16.027344 C 7.433594 16.046875 6.894531 16.613281 6.21875 17.289062 L 4.988281 18.519531 L 4.359375 18.398438 C 4.011719 18.332031 3.675781 18.265625 3.613281 18.253906 C 3.511719 18.230469 3.617188 18.109375 4.710938 17.015625 C 5.382812 16.34375 5.96875 15.792969 6.019531 15.789062 C 6.074219 15.777344 6.265625 15.796875 6.445312 15.828125 C 6.628906 15.863281 6.910156 15.914062 7.078125 15.941406 Z M 8.09375 17.125 C 8.152344 17.414062 8.199219 17.742188 8.199219 17.859375 L 8.203125 18.066406 L 7 19.273438 C 6.019531 20.253906 5.785156 20.46875 5.757812 20.40625 C 5.738281 20.359375 5.667969 20.023438 5.601562 19.664062 L 5.484375 19.007812 L 6.710938 17.78125 C 7.386719 17.105469 7.949219 16.5625 7.964844 16.574219 C 7.976562 16.589844 8.035156 16.832031 8.09375 17.125 Z M 8.09375 17.125 "/>
</g>
</svg>
