<?xml version="1.0" encoding="UTF-8"?>
<svg xmlns="http://www.w3.org/2000/svg" xmlns:xlink="http://www.w3.org/1999/xlink" width="24px" height="24px" viewBox="0 0 24 24" version="1.1">
<g id="surface1">
<path style=" stroke:none;fill-rule:nonzero;fill:#ee0f38;fill-opacity:1;" d="M 11.867188 0.445312 C 11.671875 0.53125 11.625 0.664062 11.679688 0.984375 L 11.722656 1.242188 L 10.007812 5.015625 C 9.066406 7.085938 8.277344 8.804688 8.257812 8.820312 C 8.234375 8.84375 8.101562 8.808594 7.953125 8.742188 L 7.691406 8.621094 L 5.914062 8.632812 L 4.140625 8.648438 L 3.910156 8.789062 C 3.769531 8.878906 3.628906 9.019531 3.539062 9.160156 C 3.414062 9.367188 3.398438 9.429688 3.398438 9.75 C 3.398438 10.070312 3.414062 10.132812 3.539062 10.339844 C 3.628906 10.480469 3.769531 10.621094 3.910156 10.707031 C 4.101562 10.828125 4.191406 10.847656 4.546875 10.867188 L 4.960938 10.882812 L 5.292969 12.566406 L 5.625 14.246094 L 5.367188 15.304688 C 5.226562 15.886719 5.109375 16.421875 5.109375 16.5 C 5.109375 16.6875 5.253906 16.828125 5.453125 16.828125 C 5.722656 16.828125 5.785156 16.710938 6.050781 15.640625 L 6.289062 14.671875 L 7.503906 14.671875 C 8.175781 14.671875 8.71875 14.6875 8.71875 14.703125 C 8.71875 14.726562 9.121094 16.378906 9.613281 18.375 C 10.105469 20.371094 10.507812 22.097656 10.507812 22.210938 C 10.503906 22.621094 10.199219 22.898438 9.78125 22.859375 C 9.519531 22.835938 9.335938 22.71875 9.21875 22.496094 C 9.179688 22.40625 8.855469 20.996094 8.503906 19.359375 C 8.152344 17.722656 7.835938 16.335938 7.800781 16.28125 C 7.671875 16.082031 7.328125 16.082031 7.199219 16.28125 C 7.164062 16.335938 6.84375 17.722656 6.496094 19.359375 C 6.144531 20.996094 5.835938 22.390625 5.804688 22.46875 C 5.742188 22.621094 5.523438 22.820312 5.363281 22.855469 C 5.160156 22.90625 4.832031 22.828125 4.683594 22.695312 C 4.390625 22.433594 4.390625 22.421875 4.996094 19.960938 C 5.523438 17.8125 5.535156 17.738281 5.464844 17.59375 C 5.320312 17.289062 4.875 17.363281 4.785156 17.703125 C 4.234375 19.84375 3.703125 22.015625 3.703125 22.167969 C 3.703125 22.273438 3.746094 22.476562 3.792969 22.617188 L 3.882812 22.875 L 3.371094 22.875 C 2.886719 22.875 2.851562 22.878906 2.742188 22.992188 C 2.585938 23.140625 2.585938 23.359375 2.742188 23.507812 L 2.855469 23.625 L 12.894531 23.625 L 13.007812 23.507812 C 13.164062 23.359375 13.164062 23.140625 13.007812 22.992188 C 12.894531 22.875 12.886719 22.875 12.007812 22.875 L 11.117188 22.875 L 11.210938 22.578125 C 11.273438 22.382812 11.296875 22.214844 11.28125 22.054688 C 11.269531 21.921875 10.832031 20.113281 10.316406 18.027344 L 9.375 14.234375 L 9.449219 13.949219 C 9.488281 13.796875 9.539062 13.648438 9.558594 13.632812 C 9.578125 13.613281 10.070312 14.648438 10.65625 15.933594 L 11.722656 18.273438 L 11.667969 18.558594 C 11.609375 18.824219 11.609375 18.851562 11.699219 18.96875 C 11.832031 19.144531 12.042969 19.167969 12.207031 19.023438 C 12.304688 18.933594 12.367188 18.765625 12.542969 18.097656 C 12.917969 16.671875 13.261719 16.050781 14.101562 15.257812 C 15.464844 13.96875 15.847656 13.5 16.265625 12.640625 C 16.59375 11.957031 16.875 10.90625 16.875 10.351562 L 16.875 10.171875 L 19.257812 10.171875 L 19.15625 10.355469 C 19.074219 10.503906 19.070312 10.554688 19.109375 10.65625 C 19.191406 10.832031 19.378906 10.941406 19.53125 10.898438 C 19.609375 10.878906 19.855469 10.671875 20.125 10.410156 C 20.734375 9.800781 20.734375 9.800781 20.125 9.179688 C 19.871094 8.925781 19.617188 8.703125 19.5625 8.691406 C 19.367188 8.640625 19.21875 8.710938 19.132812 8.886719 C 19.058594 9.046875 19.058594 9.0625 19.15625 9.238281 L 19.257812 9.421875 L 16.890625 9.421875 L 16.8125 8.890625 C 16.671875 7.882812 16.335938 6.988281 15.796875 6.171875 C 15.441406 5.640625 15.320312 5.507812 15.132812 5.460938 C 15.027344 5.433594 14.976562 5.457031 14.859375 5.570312 C 14.785156 5.648438 14.71875 5.761719 14.71875 5.820312 C 14.71875 5.882812 14.855469 6.117188 15.023438 6.351562 C 15.5625 7.097656 15.910156 7.9375 16.054688 8.828125 C 16.09375 9.066406 16.125 9.296875 16.125 9.335938 C 16.125 9.417969 15.917969 9.421875 12.488281 9.421875 C 10.3125 9.421875 8.859375 9.402344 8.867188 9.378906 C 8.949219 9.160156 12.027344 2.398438 12.039062 2.414062 C 12.050781 2.421875 12.125 2.597656 12.207031 2.796875 C 12.523438 3.585938 13 4.28125 13.660156 4.914062 C 14.023438 5.257812 14.078125 5.296875 14.246094 5.296875 C 14.390625 5.296875 14.453125 5.269531 14.527344 5.175781 C 14.699219 4.949219 14.664062 4.855469 14.183594 4.378906 C 13.238281 3.4375 12.710938 2.359375 12.347656 0.625 C 12.335938 0.5625 12.261719 0.488281 12.1875 0.445312 C 12.027344 0.359375 12.0625 0.359375 11.867188 0.445312 Z M 7.757812 9.492188 C 7.832031 9.5625 7.875 9.660156 7.875 9.75 C 7.875 9.839844 7.832031 9.9375 7.757812 10.007812 L 7.644531 10.125 L 4.355469 10.125 L 4.242188 10.007812 C 4.167969 9.9375 4.125 9.839844 4.125 9.75 C 4.125 9.660156 4.167969 9.5625 4.242188 9.492188 L 4.355469 9.375 L 7.644531 9.375 Z M 16.167969 10.296875 C 16.164062 10.496094 16.128906 10.617188 16.046875 10.757812 C 15.992188 10.851562 15.929688 10.851562 13.023438 10.875 C 10.09375 10.898438 10.050781 10.898438 9.867188 11 C 9.765625 11.054688 9.617188 11.164062 9.542969 11.246094 L 9.40625 11.386719 L 9.132812 10.765625 C 8.980469 10.429688 8.859375 10.144531 8.859375 10.140625 C 8.859375 10.128906 10.503906 10.125 12.515625 10.125 L 16.171875 10.125 Z M 8.632812 11.546875 L 9.039062 12.449219 L 8.867188 13.164062 L 8.699219 13.875 L 6.296875 13.875 L 6.003906 12.402344 C 5.851562 11.59375 5.71875 10.921875 5.71875 10.90625 C 5.71875 10.894531 6.1875 10.875 6.765625 10.867188 C 7.734375 10.851562 7.820312 10.847656 7.992188 10.75 C 8.09375 10.691406 8.1875 10.644531 8.203125 10.640625 C 8.21875 10.640625 8.410156 11.046875 8.632812 11.546875 Z M 15.84375 11.6875 C 15.84375 11.71875 15.71875 12 15.566406 12.304688 C 15.230469 12.980469 14.789062 13.578125 14.328125 13.976562 C 13.125 15.03125 12.613281 15.6875 12.207031 16.703125 C 12.125 16.902344 12.050781 17.078125 12.039062 17.085938 C 12.007812 17.113281 9.890625 12.441406 9.890625 12.34375 C 9.890625 12.125 10.046875 11.804688 10.191406 11.714844 C 10.332031 11.628906 10.460938 11.625 13.09375 11.625 C 15.308594 11.625 15.84375 11.640625 15.84375 11.6875 Z M 7.96875 20.398438 C 8.207031 21.515625 8.441406 22.527344 8.488281 22.648438 L 8.570312 22.875 L 6.425781 22.875 L 6.488281 22.71875 C 6.523438 22.640625 6.757812 21.628906 7.011719 20.46875 C 7.265625 19.316406 7.484375 18.375 7.5 18.375 C 7.515625 18.375 7.726562 19.289062 7.96875 20.398438 Z M 7.96875 20.398438 "/>
<path style=" stroke:none;fill-rule:nonzero;fill:#ee0f38;fill-opacity:1;" d="M 6.769531 4.542969 C 6.539062 4.597656 6.140625 4.835938 6.019531 4.984375 C 5.953125 5.0625 5.84375 5.230469 5.773438 5.363281 C 5.652344 5.59375 5.648438 5.625 5.648438 6.375 L 5.648438 7.148438 L 5.808594 7.445312 C 5.984375 7.773438 6.136719 7.917969 6.488281 8.101562 C 6.6875 8.203125 6.789062 8.222656 7.125 8.222656 C 7.46875 8.222656 7.554688 8.203125 7.765625 8.09375 C 8.078125 7.9375 8.304688 7.707031 8.476562 7.390625 C 8.597656 7.152344 8.601562 7.128906 8.601562 6.375 C 8.601562 5.625 8.597656 5.59375 8.476562 5.363281 C 8.289062 5.011719 8.148438 4.859375 7.832031 4.691406 C 7.527344 4.53125 7.0625 4.460938 6.769531 4.542969 Z M 7.574219 5.414062 C 7.835938 5.617188 7.882812 5.78125 7.867188 6.449219 C 7.851562 6.941406 7.835938 7.046875 7.753906 7.152344 C 7.601562 7.359375 7.433594 7.460938 7.210938 7.484375 C 6.9375 7.519531 6.703125 7.414062 6.535156 7.191406 C 6.40625 7.027344 6.398438 6.984375 6.382812 6.5 C 6.359375 5.875 6.390625 5.71875 6.546875 5.527344 C 6.8125 5.21875 7.25 5.171875 7.574219 5.414062 Z M 7.574219 5.414062 "/>
<path style=" stroke:none;fill-rule:nonzero;fill:#ee0f38;fill-opacity:1;" d="M 0.492188 22.992188 C 0.335938 23.140625 0.335938 23.359375 0.492188 23.507812 C 0.601562 23.621094 0.636719 23.625 1.125 23.625 C 1.613281 23.625 1.648438 23.621094 1.757812 23.507812 C 1.914062 23.359375 1.914062 23.140625 1.757812 22.992188 C 1.648438 22.878906 1.613281 22.875 1.125 22.875 C 0.636719 22.875 0.601562 22.878906 0.492188 22.992188 Z M 0.492188 22.992188 "/>
<path style=" stroke:none;fill-rule:nonzero;fill:#ee0f38;fill-opacity:1;" d="M 13.992188 22.992188 C 13.917969 23.0625 13.875 23.160156 13.875 23.25 C 13.875 23.339844 13.917969 23.4375 13.992188 23.507812 L 14.105469 23.625 L 23.394531 23.625 L 23.507812 23.507812 C 23.582031 23.4375 23.625 23.339844 23.625 23.25 C 23.625 23.160156 23.582031 23.0625 23.507812 22.992188 L 23.394531 22.875 L 14.105469 22.875 Z M 13.992188 22.992188 "/>
</g>
</svg>
